<?xml version="1.0" standalone="no"?>
<!DOCTYPE svg PUBLIC "-//W3C//DTD SVG 20010904//EN"
 "http://www.w3.org/TR/2001/REC-SVG-20010904/DTD/svg10.dtd">
<svg version="1.0" xmlns="http://www.w3.org/2000/svg"
 width="512" height="512" viewBox="0 0 512 512"
 preserveAspectRatio="xMidYMid meet">
<!-- Blue background matching navbar (bg-blue-600 = #2563EB) -->
<rect width="512" height="512" fill="#2563EB"/>
<!-- Logo from best seo tool.svg, centered and properly scaled -->
<g transform="translate(80, 109) scale(1.0)">
<g transform="translate(0.000000,294.000000) scale(0.100000,-0.100000)" fill="#000000" stroke="none">
<!-- Vibrant purple rocket head -->
<path d="M1264 2839 c-10 -17 7 -29 64 -46 107 -32 332 -16 332 24 0 12 -6 14
-27 8 -16 -3 -75 -9 -133 -12 -86 -4 -116 -1 -168 15 -34 11 -65 16 -68 11z" fill="#A855F7" stroke="#7C3AED" stroke-width="2"/>
<!-- Colorful rocket body with gradient effect -->
<path d="M592 2774 c-73 -37 -110 -129 -92 -225 6 -29 23 -93 39 -143 65 -204
64 -300 -8 -498 -26 -70 -27 -151 -3 -198 20 -41 53 -48 62 -12 6 26 23 31 28
8 2 -8 -8 -71 -22 -139 -14 -68 -26 -145 -26 -169 0 -111 41 -225 106 -297 43
-48 83 -71 180 -103 114 -37 133 -66 168 -256 16 -92 45 -140 98 -168 39 -20
50 -9 37 41 -8 32 -6 61 10 139 28 131 27 184 -5 289 -31 98 -26 129 21 141
59 15 116 -45 135 -142 20 -103 49 -186 83 -240 34 -54 133 -162 149 -162 21
0 4 30 -50 87 -72 77 -117 167 -142 283 -33 156 -82 216 -165 206 -46 -5 -85
-43 -85 -81 0 -14 11 -64 25 -111 30 -105 31 -123 4 -254 -11 -57 -18 -116
-15 -132 4 -21 2 -28 -7 -26 -25 9 -55 83 -71 180 -24 147 -54 191 -155 228
-31 11 -75 27 -98 36 -23 8 -61 34 -84 57 -104 103 -128 263 -75 487 21 88 20
126 -4 150 -16 16 -25 18 -40 10 -11 -6 -20 -17 -20 -25 0 -20 -16 -19 -24 1
-14 37 -4 109 29 199 58 162 57 295 -7 488 -56 171 -47 262 32 315 59 40 124
29 276 -49 l127 -64 176 -1 c166 0 181 -2 256 -28 46 -16 111 -31 153 -34 39
-2 72 -8 72 -12 0 -11 -68 -70 -96 -82 -64 -29 12 -65 214 -102 160 -30 210
-47 277 -94 35 -24 52 -47 71 -90 63 -145 83 -163 197 -182 75 -13 137 -36
137 -51 0 -5 -12 -6 -27 -2 -50 14 -96 5 -178 -34 -75 -35 -86 -38 -172 -38
-86 0 -94 -2 -118 -26 -35 -34 -44 -98 -21 -135 26 -38 75 -54 197 -64 64 -5
121 -15 139 -25 31 -16 33 -27 6 -31 -56 -8 -86 -45 -86 -105 0 -83 72 -145
220 -189 100 -29 144 -53 173 -92 36 -50 40 -64 46 -190 5 -94 10 -120 25
-137 19 -21 19 -21 -3 -21 -12 0 -39 9 -60 19 -38 20 -53 44 -67 106 -27 120
-184 99 -184 -25 0 -41 15 -68 59 -106 l36 -32 0 -118 c0 -109 2 -124 27 -177
49 -105 183 -206 326 -248 23 -7 42 -16 42 -20 0 -17 -87 -31 -162 -26 -168
11 -278 97 -406 313 -57 95 -92 128 -138 128 -68 0 -89 -57 -59 -158 8 -27 15
-84 15 -127 0 -134 -38 -170 -70 -67 -22 73 -49 116 -106 168 -56 51 -151 97
-167 81 -14 -14 -2 -25 46 -41 49 -15 128 -79 157 -124 12 -20 31 -67 43 -104
20 -62 24 -67 53 -70 42 -4 63 23 77 101 9 56 8 77 -8 144 -24 102 -24 143 -3
156 37 24 68 -3 144 -123 145 -232 263 -311 459 -309 157 1 212 68 89 109
-143 49 -255 133 -301 228 -26 53 -28 64 -25 165 3 121 -2 135 -59 188 -43 41
-51 78 -23 117 12 18 24 22 52 20 35 -3 37 -6 58 -66 24 -72 46 -99 91 -118
70 -30 160 -9 117 27 -33 27 -42 64 -41 160 1 107 -13 152 -66 207 -41 43 -81
63 -187 96 -102 31 -144 55 -170 98 -38 63 -17 119 50 136 38 9 50 33 29 58
-26 32 -75 46 -181 55 -107 9 -136 17 -170 47 -26 22 -22 68 6 97 23 23 29 24
103 19 76 -6 80 -5 171 36 85 38 100 42 160 38 66 -3 67 -3 70 23 5 45 -56 77
-178 93 -72 10 -105 36 -125 98 -35 108 -109 186 -215 223 -25 9 -101 27 -170
40 -69 12 -144 28 -168 34 l-43 12 50 45 c85 77 80 113 -16 106 -46 -3 -81 4
-172 32 -113 36 -114 36 -275 34 l-161 -3 -125 64 c-112 58 -132 65 -195 68
-52 3 -78 -1 -103 -13z" fill="#3B82F6" stroke="#2563EB" stroke-width="2"/>
<!-- Orange/Yellow flames -->
<path d="M744 2639 c-59 -31 -89 -86 -88 -164 1 -33 7 -71 13 -85 10 -21 11
-19 5 20 -10 66 -7 95 15 144 21 48 56 77 95 80 13 0 22 4 20 8 -2 4 8 9 23
11 24 3 23 4 -7 5 -19 1 -54 -8 -76 -19z" fill="#F59E0B" stroke="#D97706" stroke-width="2"/>
<!-- Yellow/Orange graph/chart -->
<path d="M2578 2634 c-3 -3 1 -18 9 -35 21 -42 4 -84 -58 -144 -86 -84 -109
-165 -58 -211 25 -22 36 -11 21 21 -25 54 -16 82 49 151 85 92 108 153 73 202
-15 22 -26 27 -36 16z" fill="#FBBF24" stroke="#F59E0B" stroke-width="2"/>
<!-- Cyan/Green stripe -->
<path d="M1035 2560 c3 -5 10 -10 14 -10 5 0 30 -10 57 -22 45 -21 63 -23 236
-23 103 0 177 4 166 8 -12 4 -96 7 -187 6 -161 -2 -168 -2 -224 24 -63 30 -71
32 -62 17z" fill="#10B981" stroke="#059669" stroke-width="1"/>
<!-- Pink/Purple details -->
<path d="M769 2515 c-53 -29 -55 -55 -19 -267 33 -199 35 -208 51 -208 14 0
11 44 -12 165 -11 61 -23 144 -26 186 -5 74 -5 78 20 94 30 19 65 15 136 -17
180 -81 483 -182 776 -258 196 -51 215 -58 215 -85 0 -49 -213 -295 -375 -434
-168 -145 -387 -286 -538 -347 -114 -47 -120 -36 -142 281 -16 228 -24 271
-44 249 -8 -8 21 -429 34 -503 8 -44 46 -81 83 -81 43 0 230 90 349 167 21 14
24 12 84 -79 81 -124 135 -231 179 -358 29 -84 42 -108 63 -120 25 -14 31 -13
90 17 98 52 232 157 357 282 188 192 218 45 284 -121 54 -249 132 -350 213
-156 62 -189 69 -233 45z m919 -813 l43 -37 -21 -90 c-28 -120 -51 -194 -100
-317 -67 -169 -59 -165 -113 -53 -47 97 -123 223 -159 261 l-19 22 38 23 c49
30 221 168 252 203 14 14 27 26 30 26 3 0 25 -17 49 -38z m112 -93 c0 -4 16
-17 35 -29 58 -36 64 -46 55 -82 -5 -18 -11 -49 -13 -68 -10 -78 -63 -228
-117 -331 -16 -30 -30 -69 -32 -85 -4 -36 -15 -48 -63 -68 -43 -18 -44 -18
-74 49 -28 63 -33 101 -14 116 16 14 72 122 76 149 2 8 8 24 14 35 14 26 72
223 88 297 3 19 11 26 25 25 11 -1 20 -4 20 -8z m318 -172 c23 -10 45 -24 49
-32 8 -22 -35 -79 -134 -179 -74 -74 -238 -215 -280 -239 -6 -4 10 34 37 85 61
118 115 273 130 376 l12 79 71 -37 c40 -20 91 -44 115 -53z" fill="#EC4899" stroke="#DB2777" stroke-width="1.5" opacity="0.8"/>
<!-- Cyan details -->
<path d="M1639 1672 c-14 -9 -36 -28 -50 -40 -13 -13 -53 -45 -89 -70 -79 -57
-120 -92 -120 -104 0 -15 137 85 260 190 39 34 38 51 -1 24z" fill="#06B6D4" stroke="#0891B2" stroke-width="1.5"/>
<path d="M1790 2455 l-35 -14 35 4 c50 4 50 4 50 15 0 12 -6 12 -50 -5z" fill="#22D3EE" stroke="#06B6D4" stroke-width="1.5"/>
<!-- Purple/Pink details -->
<path d="M839 2443 c-19 -22 -16 -79 15 -263 39 -238 46 -290 61 -505 20 -270
25 -315 37 -315 8 0 9 31 4 98 -4 53 -10 133 -12 177 -12 205 -33 376 -70 570
-3 17 -7 41 -9 55 -17 120 -17 127 -2 157 22 41 4 60 -24 26z" fill="#C084FC" stroke="#A855F7" stroke-width="1.5" opacity="0.9"/>
<!-- Cyan/Blue details -->
<path d="M2725 2388 c-35 -19 -65 -51 -65 -69 0 -31 18 -30 36 1 18 29 39 42
79 45 11 1 21 9 23 18 4 20 -41 23 -73 5z" fill="#60A5FA" stroke="#3B82F6" stroke-width="1.5"/>
<!-- White highlights -->
<path d="M360 2272 c0 -120 -22 -300 -49 -412 -24 -96 -26 -123 -8 -118 32 11
77 257 84 466 5 146 4 162 -11 162 -14 0 -16 -14 -16 -98z" fill="#F0F9FF" stroke="#E0F2FE" stroke-width="1"/>
<!-- Purple accents -->
<path d="M1731 2298 c12 -13 120 -38 266 -62 12 -2 26 -7 32 -10 5 -4 12 -3
15 2 5 8 -1 10 -41 13 -10 1 -22 5 -28 9 -5 4 -35 11 -66 14 -55 7 -134 26
-174 42 -18 7 -19 6 -4 -8z" fill="#A855F7" stroke="#9333EA" stroke-width="1.5" opacity="0.8"/>
<!-- Blue details -->
<path d="M2965 2190 c-11 -5 -56 -6 -100 -3 -114 8 -175 -22 -187 -92 -6 -34
28 -30 35 5 10 46 58 63 156 55 85 -7 134 3 139 28 4 18 -11 21 -43 7z" fill="#3B82F6" stroke="#2563EB" stroke-width="1.5"/>
<!-- White/light blue details -->
<path d="M1980 2115 c8 -10 13 -28 11 -39 -4 -27 -62 -107 -130 -178 -30 -32
-50 -58 -46 -58 4 0 -3 -10 -16 -22 -13 -13 -33 -34 -43 -48 -28 -37 94 88
132 135 125 155 142 193 100 216 -22 11 -22 11 -8 -6z" fill="#E0F2FE" stroke="#BAE6FD" stroke-width="1"/>
<!-- Cyan/Teal details -->
<path d="M742 1997 c-1 -23 -5 -55 -8 -72 -4 -23 -3 -26 5 -14 6 9 12 37 12
62 2 39 4 43 16 31 8 -8 19 -14 25 -14 6 0 9 1 7 3 -2 1 -15 12 -30 24 l-25
23 -2 -43z" fill="#14B8A6" stroke="#0D9488" stroke-width="1"/>
<path d="M706 1840 c-9 -30 -20 -61 -23 -69 -3 -8 -1 -11 5 -7 14 8 45 102 39
119 -2 6 -12 -13 -21 -43z" fill="#2DD4BF" stroke="#14B8A6" stroke-width="1"/>
<!-- White/light details -->
<path d="M2514 1875 c11 -8 25 -15 32 -15 7 0 15 -3 17 -7 3 -5 -13 -9 -36
-11 -22 -1 -60 -11 -83 -21 -23 -11 -46 -16 -50 -13 -4 4 -4 1 -1 -7 5 -9 3
-12 -6 -9 -8 3 -22 -1 -31 -9 -26 -23 -89 -33 -149 -24 -30 5 -58 6 -62 2 -4
-4 -2 -8 5 -9 7 0 43 -4 79 -8 64 -6 70 -5 158 36 89 40 113 45 201 37 41 -3
30 25 -20 50 -52 26 -86 31 -56 8z" fill="#F0F9FF" stroke="#E0F2FE" stroke-width="1"/>
<!-- Cyan details -->
<path d="M707 1625 c-8 -8 -17 -11 -21 -8 -12 12 -6 -14 8 -33 16 -20 18 -18
29 34 6 26 4 27 -16 7z" fill="#06B6D4" stroke="#0891B2" stroke-width="1"/>
<!-- Light blue details -->
<path d="M2080 1601 c0 -14 55 -51 77 -51 12 1 8 5 -12 14 -17 7 -39 21 -48
30 -9 10 -17 13 -17 7z" fill="#DBEAFE" stroke="#BFDBFE" stroke-width="1"/>
<!-- Purple/Pink details -->
<path d="M755 1467 c-25 -118 -30 -241 -11 -297 11 -32 14 -36 10 -13 -11 66
-7 191 10 287 10 54 16 100 13 102 -2 2 -12 -33 -22 -79z" fill="#F472B6" stroke="#EC4899" stroke-width="1" opacity="0.8"/>
<!-- White details -->
<path d="M2382 1522 c42 -19 49 -37 18 -47 -20 -6 -64 -55 -56 -62 2 -2 17 10
34 27 19 18 41 30 57 30 20 0 26 4 23 17 -4 20 -62 52 -93 52 -13 -1 -8 -6
17 -17z" fill="#FFFFFF" stroke="#F3F4F6" stroke-width="1"/>
<!-- Dark blue stripe -->
<path d="M2473 1397 c9 -28 312 -37 312 -9 0 10 -37 14 -158 17 -120 3 -157 1
-154 -8z" fill="#1E40AF" stroke="#1E3A8A" stroke-width="1"/>
<!-- Light blue details -->
<path d="M1140 1329 c-41 -21 -88 -43 -105 -48 -16 -5 -22 -10 -13 -10 17 -1
159 61 193 85 33 24 3 13 -75 -27z" fill="#BFDBFE" stroke="#93C5FD" stroke-width="1"/>
<path d="M2410 1247 c20 -21 90 -50 90 -37 0 5 -6 10 -14 10 -8 0 -32 10 -53
22 -26 14 -33 16 -23 5z" fill="#DBEAFE" stroke="#BFDBFE" stroke-width="1"/>
<!-- Cyan/Blue details -->
<path d="M2700 1135 c0 -5 6 -16 14 -24 8 -9 26 -39 40 -67 22 -44 26 -65 28
-165 1 -63 7 -118 13 -122 5 -5 -5 -6 -24 -3 -19 4 -42 13 -51 21 -22 20 -36
19 -19 -1 21 -25 61 -41 108 -43 l45 -1 -29 30 c-29 30 -29 34 -31 138 0 89
-4 114 -22 149 -22 42 -72 103 -72 88z" fill="#22D3EE" stroke="#06B6D4" stroke-width="1"/>
<!-- White/light details -->
<path d="M1405 1072 c11 -9 28 -28 38 -42 9 -13 17 -19 17 -12 0 16 -50 72
-64 72 -6 -1 -2 -8 9 -18z" fill="#F0F9FF" stroke="#E0F2FE" stroke-width="1"/>
<!-- Pink/Purple details -->
<path d="M1463 979 c4 -13 16 -63 28 -111 11 -48 26 -92 34 -98 10 -8 9 2 -4
37 -10 26 -24 78 -31 116 -7 37 -17 70 -23 74 -6 4 -8 -2 -4 -18z" fill="#EC4899" stroke="#DB2777" stroke-width="1" opacity="0.7"/>
<!-- White details -->
<path d="M1276 925 c3 -16 8 -72 11 -122 3 -52 9 -90 14 -87 16 10 8 137 -12
189 -10 28 -16 37 -13 20z" fill="#FFFFFF" stroke="#F3F4F6" stroke-width="1"/>
<!-- Light blue details -->
<path d="M2540 743 c47 -52 52 -70 45 -147 -4 -39 -3 -81 2 -93 5 -14 9 15 11
84 2 116 -9 151 -57 173 l-26 12 25 -29z" fill="#DBEAFE" stroke="#BFDBFE" stroke-width="1"/>
<!-- Cyan details -->
<path d="M1283 688 c2 -7 -2 -33 -9 -58 -7 -25 -15 -60 -18 -78 -5 -37 -16
-56 -16 -29 0 9 -6 17 -14 17 -8 0 -17 6 -19 13 -4 9 -6 8 -6 -2 -1 -15 77
-97 85 -89 2 3 -1 23 -8 44 -11 30 -11 47 -2 74 19 58 26 120 13 120 -6 0 -9
-6 -6 -12z" fill="#06B6D4" stroke="#0891B2" stroke-width="1"/>
<!-- White/light details -->
<path d="M1346 672 c-2 -4 1 -26 9 -48 21 -58 19 -171 -5 -245 -11 -36 -38
-88 -61 -118 -51 -67 -39 -90 16 -30 51 57 83 132 96 225 9 68 8 89 -8 148
-17 65 -34 89 -47 68z" fill="#F0F9FF" stroke="#E0F2FE" stroke-width="1"/>
<!-- Cyan/Teal details -->
<path d="M1635 599 c28 -28 64 -60 80 -71 17 -12 -3 11 -43 50 -83 82 -112 99
-37 21z" fill="#14B8A6" stroke="#0D9488" stroke-width="1"/>
<!-- Purple/Pink details -->
<path d="M2201 464 c-1 -17 6 -48 14 -67 20 -49 20 -178 -1 -218 -15 -30 -16
-30 -35 -13 -11 10 -18 25 -16 34 2 8 -5 24 -16 35 -11 11 -17 14 -13 7 4 -7
13 -34 19 -60 23 -92 82 -56 93 56 6 56 0 101 -30 207 -13 43 -15 46 -15 19z" fill="#C084FC" stroke="#A855F7" stroke-width="1" opacity="0.8"/>
<!-- Cyan/Blue details -->
<path d="M2874 189 c-3 -5 -2 -9 3 -8 19 3 34 -2 29 -10 -4 -5 2 -7 13 -4 20
5 38 -24 22 -40 -19 -19 -125 -19 -201 1 -85 22 -101 21 -44 -3 86 -37 284
-27 292 15 3 18 -104 64 -114 49z" fill="#60A5FA" stroke="#3B82F6" stroke-width="1"/>
</g>
</g>
</svg>
